<svg width="43" height="42" viewBox="0 0 43 42" fill="none" xmlns="http://www.w3.org/2000/svg">
<path d="M39.6665 18.3338H9.87988L22.8932 5.32042C23.9332 4.28042 23.9332 2.57376 22.8932 1.53376C22.6465 1.28655 22.3535 1.09042 22.0309 0.956603C21.7083 0.822786 21.3625 0.753906 21.0132 0.753906C20.664 0.753906 20.3181 0.822786 19.9956 0.956603C19.673 1.09042 19.3799 1.28655 19.1332 1.53376L1.55988 19.1071C1.31267 19.3538 1.11654 19.6468 0.982727 19.9694C0.84891 20.292 0.780029 20.6378 0.780029 20.9871C0.780029 21.3363 0.84891 21.6822 0.982727 22.0048C1.11654 22.3274 1.31267 22.6204 1.55988 22.8671L19.1332 40.4404C19.3801 40.6873 19.6732 40.8831 19.9958 41.0168C20.3183 41.1504 20.6641 41.2191 21.0132 41.2191C21.3624 41.2191 21.7081 41.1504 22.0307 41.0168C22.3532 40.8831 22.6463 40.6873 22.8932 40.4404C23.1401 40.1935 23.3359 39.9004 23.4696 39.5779C23.6032 39.2553 23.6719 38.9096 23.6719 38.5604C23.6719 38.2113 23.6032 37.8655 23.4696 37.543C23.3359 37.2204 23.1401 36.9273 22.8932 36.6804L9.87988 23.6671H39.6665C41.1332 23.6671 42.3332 22.4671 42.3332 21.0004C42.3332 19.5338 41.1332 18.3338 39.6665 18.3338Z" fill="white"/>
</svg>
